<svg width="28" height="28" viewBox="0 0 28 28" fill="none" xmlns="http://www.w3.org/2000/svg">
<circle cx="14" cy="14" r="14" fill="#FCB829"/>
<circle cx="14" cy="14" r="12.7273" fill="white"/>
<circle cx="14.0001" cy="14" r="10.1818" fill="#FFB62B"/>
<g clip-path="url(#clip0)">
<path d="M19.6974 14.4805C19.3042 13.972 18.7108 13.6227 17.9172 13.4328C18.9277 12.9174 19.3718 12.0425 19.2499 10.8081C19.2092 10.3604 19.0854 9.97248 18.8785 9.64364C18.6714 9.31473 18.392 9.05032 18.0391 8.85028C17.6865 8.65 17.303 8.49754 16.8895 8.39243C16.4759 8.28732 16.001 8.211 15.4652 8.16357V5.60001H13.8988V8.09235C13.6275 8.09235 13.2138 8.09912 12.6578 8.11269V5.60001H11.0911V8.16357C10.8672 8.17038 10.5384 8.17383 10.1043 8.17383L7.94775 8.16357V9.83195H9.07686C9.59229 9.83195 9.89409 10.0626 9.98224 10.5237V13.4433C10.0501 13.4433 10.1043 13.4468 10.1451 13.4536H9.98224V17.5429C9.92804 17.8887 9.7314 18.0618 9.39226 18.0618H8.26323L7.94783 19.9235H9.98242C10.1113 19.9235 10.2977 19.9252 10.5419 19.9282C10.786 19.9316 10.9691 19.9334 11.0912 19.9334V22.5274H12.6581V19.9639C12.9429 19.9708 13.3565 19.9741 13.8991 19.9741V22.5274H15.4656V19.9334C16.0218 19.9063 16.5152 19.8557 16.9456 19.7808C17.3763 19.706 17.7884 19.5892 18.1817 19.4297C18.5749 19.2704 18.9038 19.0719 19.1682 18.8345C19.4328 18.5974 19.6513 18.2954 19.8246 17.9292C19.9972 17.5629 20.1076 17.139 20.1549 16.6574C20.2434 15.715 20.0908 14.9892 19.6974 14.4805ZM12.6883 9.94354C12.7358 9.94354 12.8697 9.94183 13.0901 9.93841C13.3106 9.93492 13.4937 9.93157 13.6395 9.92815C13.7853 9.9248 13.982 9.93328 14.2296 9.95363C14.4771 9.97397 14.6856 10.0012 14.8551 10.035C15.0246 10.0689 15.2113 10.1248 15.4146 10.2028C15.6182 10.2808 15.7809 10.3757 15.9028 10.4876C16.025 10.5995 16.1284 10.742 16.213 10.9149C16.2979 11.0879 16.3403 11.2862 16.3403 11.51C16.3403 11.6999 16.3098 11.8729 16.2488 12.0289C16.188 12.1849 16.0962 12.3155 15.9743 12.4206C15.8523 12.5257 15.7266 12.6174 15.5977 12.6953C15.469 12.7732 15.3044 12.836 15.1044 12.8834C14.9044 12.9309 14.7298 12.9682 14.5807 12.9953C14.4315 13.0225 14.245 13.0412 14.0212 13.0513C13.7973 13.0614 13.6277 13.0683 13.5125 13.0717C13.3971 13.075 13.2395 13.075 13.0394 13.0717C12.8392 13.0683 12.7224 13.0666 12.6884 13.0666V9.94351H12.6883V9.94354ZM16.9661 16.8711C16.9015 17.0272 16.8185 17.1629 16.7169 17.2783C16.6151 17.3934 16.481 17.4952 16.315 17.5833C16.1489 17.6715 15.9877 17.7426 15.8319 17.7969C15.6758 17.8514 15.4875 17.8986 15.2673 17.9394C15.0466 17.9801 14.8535 18.0088 14.6871 18.0259C14.5211 18.0429 14.3228 18.0564 14.0921 18.0666C13.8616 18.0766 13.6818 18.0818 13.553 18.0818C13.4241 18.0818 13.2613 18.0799 13.0646 18.0766C12.8678 18.0734 12.7425 18.0717 12.6882 18.0717V14.6332C12.7424 14.6332 12.9035 14.6299 13.1714 14.6229C13.4394 14.6161 13.658 14.6129 13.8275 14.6129C13.9971 14.6129 14.2311 14.6229 14.5297 14.6434C14.8279 14.6636 15.0788 14.694 15.2825 14.7347C15.4858 14.7755 15.7078 14.8381 15.9487 14.923C16.1894 15.0077 16.3845 15.1111 16.5337 15.2332C16.683 15.3555 16.8084 15.5112 16.91 15.7012C17.012 15.891 17.0628 16.1081 17.0628 16.3523C17.0628 16.5424 17.0306 16.715 16.9661 16.8711Z" fill="white"/>
</g>
<defs>
<clipPath id="clip0">
<rect width="16.9273" height="16.9273" fill="white" transform="translate(5.59998 5.60001)"/>
</clipPath>
</defs>
</svg>
