<svg width="28" height="28" viewBox="0 0 28 28" fill="none" xmlns="http://www.w3.org/2000/svg">
<path d="M26.1218 7.31439C24.8699 5.16939 23.1718 3.47119 21.027 2.21941C18.8818 0.96756 16.54 0.341797 13.9998 0.341797C11.4599 0.341797 9.11727 0.967752 6.97259 2.21941C4.82759 3.47113 3.12952 5.16939 1.87761 7.31439C0.625891 9.45933 0 11.8016 0 14.3412C0 17.3918 0.890026 20.135 2.67052 22.5714C4.45083 25.0081 6.75073 26.6942 9.57001 27.6298C9.89819 27.6907 10.1411 27.6479 10.2991 27.5024C10.4571 27.3567 10.536 27.1742 10.536 26.9557C10.536 26.9193 10.5329 26.5913 10.5268 25.9714C10.5206 25.3515 10.5176 24.8107 10.5176 24.3493L10.0983 24.4219C9.83102 24.4708 9.49378 24.4916 9.08663 24.4857C8.67967 24.48 8.25719 24.4374 7.81978 24.3581C7.38217 24.2795 6.97515 24.0972 6.59839 23.8116C6.22182 23.526 5.95449 23.1522 5.79647 22.6907L5.61419 22.2712C5.49269 21.992 5.3014 21.6817 5.04008 21.3417C4.77875 21.0013 4.51449 20.7706 4.24716 20.6491L4.11953 20.5577C4.03449 20.497 3.95557 20.4238 3.88259 20.3388C3.80968 20.2538 3.75509 20.1688 3.71864 20.0836C3.68212 19.9983 3.71238 19.9284 3.80974 19.8736C3.90711 19.8187 4.08307 19.7921 4.3384 19.7921L4.70284 19.8466C4.9459 19.8953 5.24656 20.0408 5.60518 20.284C5.96362 20.527 6.25827 20.8429 6.48921 21.2316C6.76886 21.73 7.10578 22.1098 7.50093 22.3711C7.89576 22.6324 8.29384 22.7629 8.6948 22.7629C9.09576 22.7629 9.44206 22.7325 9.73384 22.672C10.0253 22.6112 10.2988 22.5199 10.5541 22.3984C10.6635 21.5839 10.9612 20.9581 11.4472 20.5207C10.7546 20.4479 10.1319 20.3383 9.57876 20.1925C9.02597 20.0465 8.45474 19.8097 7.86543 19.4812C7.2758 19.1533 6.78667 18.746 6.39791 18.2601C6.00908 17.774 5.68997 17.1358 5.44103 16.346C5.19197 15.556 5.0674 14.6447 5.0674 13.6117C5.0674 12.141 5.54753 10.8895 6.5076 9.85645C6.05786 8.75075 6.10032 7.51123 6.6351 6.13801C6.98753 6.02851 7.51018 6.11068 8.2028 6.38401C8.89553 6.65747 9.40273 6.89172 9.72491 7.08595C10.0471 7.2801 10.3052 7.44464 10.4997 7.57808C11.6301 7.26223 12.7966 7.10427 13.9996 7.10427C15.2027 7.10427 16.3695 7.26223 17.4999 7.57808L18.1926 7.14079C18.6663 6.84901 19.2256 6.58162 19.8693 6.33855C20.5134 6.09562 21.006 6.02871 21.3464 6.1382C21.893 7.51149 21.9418 8.75095 21.4919 9.85665C22.4519 10.8897 22.9322 12.1415 22.9322 13.6119C22.9322 14.6448 22.8072 15.5591 22.5585 16.3552C22.3095 17.1514 21.9877 17.789 21.5928 18.2692C21.1976 18.7494 20.7053 19.1535 20.116 19.4814C19.5266 19.8096 18.9551 20.0465 18.4023 20.1924C17.8493 20.3384 17.2266 20.4481 16.534 20.521C17.1657 21.0677 17.4816 21.9305 17.4816 23.1093V26.9552C17.4816 27.1737 17.5576 27.3561 17.7097 27.5019C17.8616 27.6474 18.1014 27.6902 18.4296 27.6293C21.2493 26.6937 23.5492 25.0076 25.3294 22.5709C27.1095 20.1345 27.9998 17.3913 27.9998 14.3407C27.9992 11.8014 27.373 9.45933 26.1218 7.31439Z" fill="#0E76A8"/>
</svg>
