<svg width="28" height="28" viewBox="0 0 28 28" fill="none" xmlns="http://www.w3.org/2000/svg">
<g clip-path="url(#clip0)">
<path d="M13.9998 27.9997C21.7317 27.9997 27.9997 21.7317 27.9997 13.9998C27.9997 6.26794 21.7317 0 13.9998 0C6.26794 0 0 6.26794 0 13.9998C0 21.7317 6.26794 27.9997 13.9998 27.9997Z" fill="#41B4E6"/>
<path d="M12.6392 16.0397L18.9661 20.8165L22.1598 7.18359L5.83789 13.6039L10.8044 15.2489L19.8685 9.16897L12.6392 16.0397Z" fill="white"/>
<path d="M10.8066 15.2499L12.1669 20.1446L12.6414 16.0406L19.8707 9.16992L10.8066 15.2499Z" fill="#D2D2D7"/>
<path d="M14.6968 17.5915L12.166 20.143L12.6405 16.0391L14.6968 17.5915Z" fill="#B9B9BE"/>
</g>
<defs>
<clipPath id="clip0">
<rect width="28" height="28" fill="white"/>
</clipPath>
</defs>
</svg>
