<svg width="28" height="28" viewBox="0 0 28 28" fill="none" xmlns="http://www.w3.org/2000/svg">
<path d="M14 0C21.7324 0 28 6.2685 28 14C28 21.7325 21.7324 28 14 28C6.26753 28 0 21.7324 0 14C0 6.2685 6.26763 0 14 0Z" fill="#26A6D1"/>
<path d="M22.7544 9.43224C22.1428 9.69646 21.4847 9.87408 20.7944 9.95463C21.4997 9.54422 22.0404 8.89583 22.295 8.12153C21.6353 8.50214 20.9055 8.7778 20.1276 8.92562C19.5055 8.28252 18.6191 7.88086 17.6374 7.88086C15.7544 7.88086 14.2267 9.36227 14.2267 11.1909C14.2267 11.4508 14.2565 11.7037 14.315 11.9461C11.48 11.8079 8.96528 10.4892 7.28356 8.48638C6.98955 8.97551 6.82154 9.54335 6.82154 10.1506C6.82154 11.2986 7.42351 12.3136 8.33881 12.906C7.77884 12.8885 7.25377 12.7406 6.79271 12.4913V12.5333C6.79271 14.138 7.96867 15.4759 9.52967 15.7804C9.24353 15.8557 8.9425 15.8968 8.63099 15.8968C8.41137 15.8968 8.1979 15.8767 7.98962 15.8373C8.42358 17.1533 9.68364 18.1105 11.1773 18.1369C10.0092 19.0258 8.53824 19.5544 6.93967 19.5544C6.66401 19.5544 6.39278 19.5386 6.125 19.508C7.63611 20.4477 9.42817 20.9964 11.3557 20.9964C17.6313 20.9964 21.063 15.9494 21.063 11.5743L21.0534 11.1456C21.7183 10.68 22.2968 10.0973 22.7544 9.43224Z" fill="white"/>
</svg>
